<svg xmlns="http://www.w3.org/2000/svg" viewBox="0 0 200 220">
  <path d="M10 6h180v86c0 74-56 102-90 112C56 194 10 166 10 92V6z" fill="#2c4454" stroke="#1a120a" stroke-width="4"/>
  <g fill="#c9b896">
    <path d="M86 48h28l6 12H80z"/>
    <circle cx="100" cy="66" r="15"/>
    <path d="M82 78h36v38H82z"/>
    <path d="M72 116h56l10 56H62z"/>
    <path d="M82 84C56 76 42 88 38 106c20 6 34 2 44-8z"/>
    <path d="M118 84c18-2 38 6 48 22-10-16-8-28-2-36l-10-4c-8 8-22 14-36 12z"/>
    <path d="M156 70l10-30 8 4-6 28z"/>
    <path d="M164 44h16" stroke="#c9b896" stroke-width="4" stroke-linecap="round"/>
    <circle cx="94" cy="64" r="2" fill="#2c4454"/>
    <circle cx="106" cy="64" r="2" fill="#2c4454"/>
  </g>
</svg>
